<svg width="20" height="20" viewBox="0 0 20 20" fill="none" xmlns="http://www.w3.org/2000/svg">
<path d="M7.98302 16.6317C7.40327 16.6317 7.45598 16.4209 7.29787 15.8938L5.61133 10.3599L18.5239 2.77048" fill="#282E35"/>
<path d="M7.98438 16.6317C8.35331 16.6317 8.56412 16.4209 8.82764 16.2101L11.1993 13.9438L8.2479 12.1518" fill="#7D7D7D"/>
<path d="M8.24735 12.1518L15.3624 17.3695C16.1003 17.8439 16.7327 17.5803 16.9436 16.6317L19.8423 3.03396C20.1058 1.87446 19.368 1.34742 18.5774 1.71635L1.65931 8.25168C0.55252 8.67332 0.55252 9.35847 1.44849 9.62199L5.82295 10.9923L15.8368 4.61509C16.3111 4.35157 16.7327 4.45697 16.4165 4.8259" fill="#7D7D7D"/>
</svg>
